G04 #@! TF.FileFunction,Legend,Top*
%FSLAX46Y46*%
G04 Gerber Fmt 4.6, Leading zero omitted, Abs format (unit mm)*
G04 Created by KiCad (PCBNEW 4.0.7-e2-6376~61~ubuntu18.04.1) date Fri Jan 25 15:58:37 2019*
%MOMM*%
%LPD*%
G01*
G04 APERTURE LIST*
%ADD10C,0.100000*%
%ADD11C,0.150000*%
%ADD12C,0.120000*%
G04 APERTURE END LIST*
D10*
D11*
X128333500Y-93535500D02*
X126936500Y-93535500D01*
X128651000Y-93218000D02*
X128333500Y-93535500D01*
X128651000Y-93218000D02*
X128524000Y-93535500D01*
X128651000Y-93218000D02*
X128333500Y-93345000D01*
X109601000Y-97409000D02*
X109855000Y-97790000D01*
X109601000Y-97409000D02*
X109982000Y-97663000D01*
X110109000Y-97917000D02*
X109601000Y-97409000D01*
X133458000Y-98399523D02*
X133419905Y-98475714D01*
X133419905Y-98589999D01*
X133458000Y-98704285D01*
X133534190Y-98780476D01*
X133610381Y-98818571D01*
X133762762Y-98856666D01*
X133877048Y-98856666D01*
X134029429Y-98818571D01*
X134105619Y-98780476D01*
X134181810Y-98704285D01*
X134219905Y-98589999D01*
X134219905Y-98513809D01*
X134181810Y-98399523D01*
X134143714Y-98361428D01*
X133877048Y-98361428D01*
X133877048Y-98513809D01*
X134219905Y-98018571D02*
X133419905Y-98018571D01*
X134219905Y-97561428D01*
X133419905Y-97561428D01*
X134219905Y-97180476D02*
X133419905Y-97180476D01*
X133419905Y-96990000D01*
X133458000Y-96875714D01*
X133534190Y-96799523D01*
X133610381Y-96761428D01*
X133762762Y-96723333D01*
X133877048Y-96723333D01*
X134029429Y-96761428D01*
X134105619Y-96799523D01*
X134181810Y-96875714D01*
X134219905Y-96990000D01*
X134219905Y-97180476D01*
X134143714Y-95688095D02*
X134181810Y-95726190D01*
X134219905Y-95840476D01*
X134219905Y-95916666D01*
X134181810Y-96030952D01*
X134105619Y-96107143D01*
X134029429Y-96145238D01*
X133877048Y-96183333D01*
X133762762Y-96183333D01*
X133610381Y-96145238D01*
X133534190Y-96107143D01*
X133458000Y-96030952D01*
X133419905Y-95916666D01*
X133419905Y-95840476D01*
X133458000Y-95726190D01*
X133496095Y-95688095D01*
X133419905Y-95459524D02*
X133419905Y-95002381D01*
X134219905Y-95230952D02*
X133419905Y-95230952D01*
X134181810Y-94773809D02*
X134219905Y-94659523D01*
X134219905Y-94469047D01*
X134181810Y-94392857D01*
X134143714Y-94354761D01*
X134067524Y-94316666D01*
X133991333Y-94316666D01*
X133915143Y-94354761D01*
X133877048Y-94392857D01*
X133838952Y-94469047D01*
X133800857Y-94621428D01*
X133762762Y-94697619D01*
X133724667Y-94735714D01*
X133648476Y-94773809D01*
X133572286Y-94773809D01*
X133496095Y-94735714D01*
X133458000Y-94697619D01*
X133419905Y-94621428D01*
X133419905Y-94430952D01*
X133458000Y-94316666D01*
X134219905Y-93148095D02*
X133838952Y-93414762D01*
X134219905Y-93605238D02*
X133419905Y-93605238D01*
X133419905Y-93300476D01*
X133458000Y-93224285D01*
X133496095Y-93186190D01*
X133572286Y-93148095D01*
X133686571Y-93148095D01*
X133762762Y-93186190D01*
X133800857Y-93224285D01*
X133838952Y-93300476D01*
X133838952Y-93605238D01*
X133419905Y-92919524D02*
X133419905Y-92462381D01*
X134219905Y-92690952D02*
X133419905Y-92690952D01*
X134181810Y-92233809D02*
X134219905Y-92119523D01*
X134219905Y-91929047D01*
X134181810Y-91852857D01*
X134143714Y-91814761D01*
X134067524Y-91776666D01*
X133991333Y-91776666D01*
X133915143Y-91814761D01*
X133877048Y-91852857D01*
X133838952Y-91929047D01*
X133800857Y-92081428D01*
X133762762Y-92157619D01*
X133724667Y-92195714D01*
X133648476Y-92233809D01*
X133572286Y-92233809D01*
X133496095Y-92195714D01*
X133458000Y-92157619D01*
X133419905Y-92081428D01*
X133419905Y-91890952D01*
X133458000Y-91776666D01*
X134219905Y-90176333D02*
X133838952Y-90443000D01*
X134219905Y-90633476D02*
X133419905Y-90633476D01*
X133419905Y-90328714D01*
X133458000Y-90252523D01*
X133496095Y-90214428D01*
X133572286Y-90176333D01*
X133686571Y-90176333D01*
X133762762Y-90214428D01*
X133800857Y-90252523D01*
X133838952Y-90328714D01*
X133838952Y-90633476D01*
X133419905Y-89909666D02*
X134219905Y-89376333D01*
X133419905Y-89376333D02*
X134219905Y-89909666D01*
X133419905Y-88366524D02*
X133419905Y-87909381D01*
X134219905Y-88137952D02*
X133419905Y-88137952D01*
X133419905Y-87718904D02*
X134219905Y-87185571D01*
X133419905Y-87185571D02*
X134219905Y-87718904D01*
X110109000Y-98933000D02*
X110109000Y-97917000D01*
X107950000Y-98933000D02*
X107950000Y-97536000D01*
X107950000Y-97536000D02*
X108077000Y-98044000D01*
X107950000Y-97536000D02*
X107823000Y-98044000D01*
X106431000Y-94277000D02*
X106456000Y-94277000D01*
X106431000Y-90127000D02*
X106536000Y-90127000D01*
X116581000Y-90127000D02*
X116476000Y-90127000D01*
X116581000Y-94277000D02*
X116476000Y-94277000D01*
X106431000Y-94277000D02*
X106431000Y-90127000D01*
X116581000Y-94277000D02*
X116581000Y-90127000D01*
X106456000Y-94277000D02*
X106456000Y-95652000D01*
D12*
X130496000Y-99120000D02*
X133156000Y-99120000D01*
X130496000Y-88900000D02*
X130496000Y-99120000D01*
X133156000Y-88900000D02*
X133156000Y-99120000D01*
X130496000Y-88900000D02*
X133156000Y-88900000D01*
X130496000Y-87630000D02*
X130496000Y-86300000D01*
X130496000Y-86300000D02*
X131826000Y-86300000D01*
D11*
X119639000Y-94023000D02*
X119664000Y-94023000D01*
X119639000Y-89873000D02*
X119744000Y-89873000D01*
X129789000Y-89873000D02*
X129684000Y-89873000D01*
X129789000Y-94023000D02*
X129684000Y-94023000D01*
X119639000Y-94023000D02*
X119639000Y-89873000D01*
X129789000Y-94023000D02*
X129789000Y-89873000D01*
X119664000Y-94023000D02*
X119664000Y-95398000D01*
D12*
X122334000Y-96244000D02*
X116584000Y-96244000D01*
X116584000Y-96244000D02*
X116584000Y-99844000D01*
X116584000Y-99844000D02*
X122334000Y-99844000D01*
X114331000Y-97698000D02*
X115031000Y-97698000D01*
X115031000Y-98898000D02*
X114331000Y-98898000D01*
X111471000Y-97109800D02*
X111471000Y-97809800D01*
X110271000Y-97809800D02*
X110271000Y-97109800D01*
X114331000Y-96174000D02*
X115031000Y-96174000D01*
X115031000Y-97374000D02*
X114331000Y-97374000D01*
X107661000Y-86746600D02*
X107661000Y-87446600D01*
X106461000Y-87446600D02*
X106461000Y-86746600D01*
X120554000Y-86903000D02*
X121254000Y-86903000D01*
X121254000Y-88103000D02*
X120554000Y-88103000D01*
X127219000Y-96932000D02*
X127219000Y-97632000D01*
X126019000Y-97632000D02*
X126019000Y-96932000D01*
X125949000Y-96932000D02*
X125949000Y-97632000D01*
X124749000Y-97632000D02*
X124749000Y-96932000D01*
X111424000Y-86622000D02*
X111424000Y-87622000D01*
X110064000Y-87622000D02*
X110064000Y-86622000D01*
D11*
X100050000Y-99800000D02*
X105900000Y-99800000D01*
X105900000Y-99800000D02*
X105900000Y-85800000D01*
X105900000Y-85800000D02*
X100050000Y-85800000D01*
X100050000Y-85800000D02*
X100050000Y-99800000D01*
D12*
X106297000Y-98587779D02*
X106297000Y-98262221D01*
X107317000Y-98587779D02*
X107317000Y-98262221D01*
X117410000Y-91716000D02*
X118810000Y-91716000D01*
X118810000Y-91716000D02*
X118810000Y-88916000D01*
X117410000Y-91716000D02*
X117410000Y-88916000D01*
X118810000Y-92180000D02*
X117410000Y-92180000D01*
X117410000Y-92180000D02*
X117410000Y-94980000D01*
X118810000Y-92180000D02*
X118810000Y-94980000D01*
X124759000Y-91194000D02*
X124759000Y-92194000D01*
X123399000Y-92194000D02*
X123399000Y-91194000D01*
X127082000Y-92448000D02*
X127082000Y-91448000D01*
X128442000Y-91448000D02*
X128442000Y-92448000D01*
X128479000Y-92448000D02*
X128479000Y-91448000D01*
X129839000Y-91448000D02*
X129839000Y-92448000D01*
D10*
X111912476Y-87572905D02*
X111912476Y-88220524D01*
X111950571Y-88296714D01*
X111988667Y-88334810D01*
X112064857Y-88372905D01*
X112217238Y-88372905D01*
X112293429Y-88334810D01*
X112331524Y-88296714D01*
X112369619Y-88220524D01*
X112369619Y-87572905D01*
X113169619Y-88372905D02*
X112712476Y-88372905D01*
X112941047Y-88372905D02*
X112941047Y-87572905D01*
X112864857Y-87687190D01*
X112788666Y-87763381D01*
X112712476Y-87801476D01*
X129482905Y-98056666D02*
X130054333Y-98056666D01*
X130168619Y-98094762D01*
X130244810Y-98170952D01*
X130282905Y-98285238D01*
X130282905Y-98361428D01*
X129559095Y-97713809D02*
X129521000Y-97675714D01*
X129482905Y-97599523D01*
X129482905Y-97409047D01*
X129521000Y-97332857D01*
X129559095Y-97294761D01*
X129635286Y-97256666D01*
X129711476Y-97256666D01*
X129825762Y-97294761D01*
X130282905Y-97751904D01*
X130282905Y-97256666D01*
X125628476Y-87191905D02*
X125628476Y-87839524D01*
X125666571Y-87915714D01*
X125704667Y-87953810D01*
X125780857Y-87991905D01*
X125933238Y-87991905D01*
X126009429Y-87953810D01*
X126047524Y-87915714D01*
X126085619Y-87839524D01*
X126085619Y-87191905D01*
X126428476Y-87268095D02*
X126466571Y-87230000D01*
X126542762Y-87191905D01*
X126733238Y-87191905D01*
X126809428Y-87230000D01*
X126847524Y-87268095D01*
X126885619Y-87344286D01*
X126885619Y-87420476D01*
X126847524Y-87534762D01*
X126390381Y-87991905D01*
X126885619Y-87991905D01*
X123063048Y-99040952D02*
X123063048Y-99421905D01*
X122796381Y-98621905D02*
X123063048Y-99040952D01*
X123329715Y-98621905D01*
X124015429Y-99421905D02*
X123558286Y-99421905D01*
X123786857Y-99421905D02*
X123786857Y-98621905D01*
X123710667Y-98736190D01*
X123634476Y-98812381D01*
X123558286Y-98850476D01*
X112659334Y-99599714D02*
X112626000Y-99637810D01*
X112526000Y-99675905D01*
X112459334Y-99675905D01*
X112359334Y-99637810D01*
X112292667Y-99561619D01*
X112259334Y-99485429D01*
X112226000Y-99333048D01*
X112226000Y-99218762D01*
X112259334Y-99066381D01*
X112292667Y-98990190D01*
X112359334Y-98914000D01*
X112459334Y-98875905D01*
X112526000Y-98875905D01*
X112626000Y-98914000D01*
X112659334Y-98952095D01*
X112926000Y-98952095D02*
X112959334Y-98914000D01*
X113026000Y-98875905D01*
X113192667Y-98875905D01*
X113259334Y-98914000D01*
X113292667Y-98952095D01*
X113326000Y-99028286D01*
X113326000Y-99104476D01*
X113292667Y-99218762D01*
X112892667Y-99675905D01*
X113326000Y-99675905D01*
X112426714Y-97652666D02*
X112464810Y-97686000D01*
X112502905Y-97786000D01*
X112502905Y-97852666D01*
X112464810Y-97952666D01*
X112388619Y-98019333D01*
X112312429Y-98052666D01*
X112160048Y-98086000D01*
X112045762Y-98086000D01*
X111893381Y-98052666D01*
X111817190Y-98019333D01*
X111741000Y-97952666D01*
X111702905Y-97852666D01*
X111702905Y-97786000D01*
X111741000Y-97686000D01*
X111779095Y-97652666D01*
X111702905Y-97419333D02*
X111702905Y-96986000D01*
X112007667Y-97219333D01*
X112007667Y-97119333D01*
X112045762Y-97052666D01*
X112083857Y-97019333D01*
X112160048Y-96986000D01*
X112350524Y-96986000D01*
X112426714Y-97019333D01*
X112464810Y-97052666D01*
X112502905Y-97119333D01*
X112502905Y-97319333D01*
X112464810Y-97386000D01*
X112426714Y-97419333D01*
X112532334Y-96678714D02*
X112499000Y-96716810D01*
X112399000Y-96754905D01*
X112332334Y-96754905D01*
X112232334Y-96716810D01*
X112165667Y-96640619D01*
X112132334Y-96564429D01*
X112099000Y-96412048D01*
X112099000Y-96297762D01*
X112132334Y-96145381D01*
X112165667Y-96069190D01*
X112232334Y-95993000D01*
X112332334Y-95954905D01*
X112399000Y-95954905D01*
X112499000Y-95993000D01*
X112532334Y-96031095D01*
X113132334Y-96221571D02*
X113132334Y-96754905D01*
X112965667Y-95916810D02*
X112799000Y-96488238D01*
X113232334Y-96488238D01*
X108087334Y-86610000D02*
X108054000Y-86643333D01*
X107954000Y-86676667D01*
X107887334Y-86676667D01*
X107787334Y-86643333D01*
X107720667Y-86576667D01*
X107687334Y-86510000D01*
X107654000Y-86376667D01*
X107654000Y-86276667D01*
X107687334Y-86143333D01*
X107720667Y-86076667D01*
X107787334Y-86010000D01*
X107887334Y-85976667D01*
X107954000Y-85976667D01*
X108054000Y-86010000D01*
X108087334Y-86043333D01*
X108720667Y-85976667D02*
X108387334Y-85976667D01*
X108354000Y-86310000D01*
X108387334Y-86276667D01*
X108454000Y-86243333D01*
X108620667Y-86243333D01*
X108687334Y-86276667D01*
X108720667Y-86310000D01*
X108754000Y-86376667D01*
X108754000Y-86543333D01*
X108720667Y-86610000D01*
X108687334Y-86643333D01*
X108620667Y-86676667D01*
X108454000Y-86676667D01*
X108387334Y-86643333D01*
X108354000Y-86610000D01*
X120770667Y-86645714D02*
X120732572Y-86683810D01*
X120618286Y-86721905D01*
X120542096Y-86721905D01*
X120427810Y-86683810D01*
X120351619Y-86607619D01*
X120313524Y-86531429D01*
X120275429Y-86379048D01*
X120275429Y-86264762D01*
X120313524Y-86112381D01*
X120351619Y-86036190D01*
X120427810Y-85960000D01*
X120542096Y-85921905D01*
X120618286Y-85921905D01*
X120732572Y-85960000D01*
X120770667Y-85998095D01*
X121037334Y-85921905D02*
X121570667Y-85921905D01*
X121227810Y-86721905D01*
X128174714Y-97415333D02*
X128212810Y-97453428D01*
X128250905Y-97567714D01*
X128250905Y-97643904D01*
X128212810Y-97758190D01*
X128136619Y-97834381D01*
X128060429Y-97872476D01*
X127908048Y-97910571D01*
X127793762Y-97910571D01*
X127641381Y-97872476D01*
X127565190Y-97834381D01*
X127489000Y-97758190D01*
X127450905Y-97643904D01*
X127450905Y-97567714D01*
X127489000Y-97453428D01*
X127527095Y-97415333D01*
X127793762Y-96958190D02*
X127755667Y-97034381D01*
X127717571Y-97072476D01*
X127641381Y-97110571D01*
X127603286Y-97110571D01*
X127527095Y-97072476D01*
X127489000Y-97034381D01*
X127450905Y-96958190D01*
X127450905Y-96805809D01*
X127489000Y-96729619D01*
X127527095Y-96691523D01*
X127603286Y-96653428D01*
X127641381Y-96653428D01*
X127717571Y-96691523D01*
X127755667Y-96729619D01*
X127793762Y-96805809D01*
X127793762Y-96958190D01*
X127831857Y-97034381D01*
X127869952Y-97072476D01*
X127946143Y-97110571D01*
X128098524Y-97110571D01*
X128174714Y-97072476D01*
X128212810Y-97034381D01*
X128250905Y-96958190D01*
X128250905Y-96805809D01*
X128212810Y-96729619D01*
X128174714Y-96691523D01*
X128098524Y-96653428D01*
X127946143Y-96653428D01*
X127869952Y-96691523D01*
X127831857Y-96729619D01*
X127793762Y-96805809D01*
X124364714Y-97415333D02*
X124402810Y-97453428D01*
X124440905Y-97567714D01*
X124440905Y-97643904D01*
X124402810Y-97758190D01*
X124326619Y-97834381D01*
X124250429Y-97872476D01*
X124098048Y-97910571D01*
X123983762Y-97910571D01*
X123831381Y-97872476D01*
X123755190Y-97834381D01*
X123679000Y-97758190D01*
X123640905Y-97643904D01*
X123640905Y-97567714D01*
X123679000Y-97453428D01*
X123717095Y-97415333D01*
X124440905Y-97034381D02*
X124440905Y-96882000D01*
X124402810Y-96805809D01*
X124364714Y-96767714D01*
X124250429Y-96691523D01*
X124098048Y-96653428D01*
X123793286Y-96653428D01*
X123717095Y-96691523D01*
X123679000Y-96729619D01*
X123640905Y-96805809D01*
X123640905Y-96958190D01*
X123679000Y-97034381D01*
X123717095Y-97072476D01*
X123793286Y-97110571D01*
X123983762Y-97110571D01*
X124059952Y-97072476D01*
X124098048Y-97034381D01*
X124136143Y-96958190D01*
X124136143Y-96805809D01*
X124098048Y-96729619D01*
X124059952Y-96691523D01*
X123983762Y-96653428D01*
X112134667Y-86848905D02*
X111868000Y-86467952D01*
X111677524Y-86848905D02*
X111677524Y-86048905D01*
X111982286Y-86048905D01*
X112058477Y-86087000D01*
X112096572Y-86125095D01*
X112134667Y-86201286D01*
X112134667Y-86315571D01*
X112096572Y-86391762D01*
X112058477Y-86429857D01*
X111982286Y-86467952D01*
X111677524Y-86467952D01*
X112896572Y-86848905D02*
X112439429Y-86848905D01*
X112668000Y-86848905D02*
X112668000Y-86048905D01*
X112591810Y-86163190D01*
X112515619Y-86239381D01*
X112439429Y-86277476D01*
X102359667Y-93070333D02*
X102859667Y-93070333D01*
X102959667Y-93103667D01*
X103026333Y-93170333D01*
X103059667Y-93270333D01*
X103059667Y-93337000D01*
X103059667Y-92370334D02*
X103059667Y-92770334D01*
X103059667Y-92570334D02*
X102359667Y-92570334D01*
X102459667Y-92637000D01*
X102526333Y-92703667D01*
X102559667Y-92770334D01*
X106319667Y-96488257D02*
X106086334Y-96488257D01*
X106086334Y-96907305D02*
X106086334Y-96107305D01*
X106419667Y-96107305D01*
X107053000Y-96907305D02*
X106653000Y-96907305D01*
X106853000Y-96907305D02*
X106853000Y-96107305D01*
X106786334Y-96221590D01*
X106719667Y-96297781D01*
X106653000Y-96335876D01*
X117519524Y-87864905D02*
X117519524Y-87064905D01*
X117710000Y-87064905D01*
X117824286Y-87103000D01*
X117900477Y-87179190D01*
X117938572Y-87255381D01*
X117976667Y-87407762D01*
X117976667Y-87522048D01*
X117938572Y-87674429D01*
X117900477Y-87750619D01*
X117824286Y-87826810D01*
X117710000Y-87864905D01*
X117519524Y-87864905D01*
X118738572Y-87864905D02*
X118281429Y-87864905D01*
X118510000Y-87864905D02*
X118510000Y-87064905D01*
X118433810Y-87179190D01*
X118357619Y-87255381D01*
X118281429Y-87293476D01*
X107447667Y-99184667D02*
X107847667Y-99184667D01*
X107647667Y-99884667D02*
X107647667Y-99184667D01*
X108081000Y-99884667D02*
X108081000Y-99184667D01*
X108347666Y-99184667D01*
X108414333Y-99218000D01*
X108447666Y-99251333D01*
X108481000Y-99318000D01*
X108481000Y-99418000D01*
X108447666Y-99484667D01*
X108414333Y-99518000D01*
X108347666Y-99551333D01*
X108081000Y-99551333D01*
X109081000Y-99418000D02*
X109081000Y-99884667D01*
X108914333Y-99151333D02*
X108747666Y-99651333D01*
X109181000Y-99651333D01*
X126879476Y-85794905D02*
X127336619Y-85794905D01*
X127108048Y-86594905D02*
X127108048Y-85794905D01*
X127603286Y-86594905D02*
X127603286Y-85794905D01*
X127908048Y-85794905D01*
X127984239Y-85833000D01*
X128022334Y-85871095D01*
X128060429Y-85947286D01*
X128060429Y-86061571D01*
X128022334Y-86137762D01*
X127984239Y-86175857D01*
X127908048Y-86213952D01*
X127603286Y-86213952D01*
X128784239Y-85794905D02*
X128403286Y-85794905D01*
X128365191Y-86175857D01*
X128403286Y-86137762D01*
X128479477Y-86099667D01*
X128669953Y-86099667D01*
X128746143Y-86137762D01*
X128784239Y-86175857D01*
X128822334Y-86252048D01*
X128822334Y-86442524D01*
X128784239Y-86518714D01*
X128746143Y-86556810D01*
X128669953Y-86594905D01*
X128479477Y-86594905D01*
X128403286Y-86556810D01*
X128365191Y-86518714D01*
X113290476Y-87064905D02*
X113747619Y-87064905D01*
X113519048Y-87864905D02*
X113519048Y-87064905D01*
X114014286Y-87864905D02*
X114014286Y-87064905D01*
X114319048Y-87064905D01*
X114395239Y-87103000D01*
X114433334Y-87141095D01*
X114471429Y-87217286D01*
X114471429Y-87331571D01*
X114433334Y-87407762D01*
X114395239Y-87445857D01*
X114319048Y-87483952D01*
X114014286Y-87483952D01*
X115157143Y-87064905D02*
X115004762Y-87064905D01*
X114928572Y-87103000D01*
X114890477Y-87141095D01*
X114814286Y-87255381D01*
X114776191Y-87407762D01*
X114776191Y-87712524D01*
X114814286Y-87788714D01*
X114852381Y-87826810D01*
X114928572Y-87864905D01*
X115080953Y-87864905D01*
X115157143Y-87826810D01*
X115195239Y-87788714D01*
X115233334Y-87712524D01*
X115233334Y-87522048D01*
X115195239Y-87445857D01*
X115157143Y-87407762D01*
X115080953Y-87369667D01*
X114928572Y-87369667D01*
X114852381Y-87407762D01*
X114814286Y-87445857D01*
X114776191Y-87522048D01*
X119645867Y-96071466D02*
X118945867Y-96071466D01*
X118945867Y-95904800D01*
X118979200Y-95804800D01*
X119045867Y-95738133D01*
X119112533Y-95704800D01*
X119245867Y-95671466D01*
X119345867Y-95671466D01*
X119479200Y-95704800D01*
X119545867Y-95738133D01*
X119612533Y-95804800D01*
X119645867Y-95904800D01*
X119645867Y-96071466D01*
X119012533Y-95404800D02*
X118979200Y-95371466D01*
X118945867Y-95304800D01*
X118945867Y-95138133D01*
X118979200Y-95071466D01*
X119012533Y-95038133D01*
X119079200Y-95004800D01*
X119145867Y-95004800D01*
X119245867Y-95038133D01*
X119645867Y-95438133D01*
X119645867Y-95004800D01*
X109987667Y-99184667D02*
X110387667Y-99184667D01*
X110187667Y-99884667D02*
X110187667Y-99184667D01*
X110621000Y-99884667D02*
X110621000Y-99184667D01*
X110887666Y-99184667D01*
X110954333Y-99218000D01*
X110987666Y-99251333D01*
X111021000Y-99318000D01*
X111021000Y-99418000D01*
X110987666Y-99484667D01*
X110954333Y-99518000D01*
X110887666Y-99551333D01*
X110621000Y-99551333D01*
X111254333Y-99184667D02*
X111687666Y-99184667D01*
X111454333Y-99451333D01*
X111554333Y-99451333D01*
X111621000Y-99484667D01*
X111654333Y-99518000D01*
X111687666Y-99584667D01*
X111687666Y-99751333D01*
X111654333Y-99818000D01*
X111621000Y-99851333D01*
X111554333Y-99884667D01*
X111354333Y-99884667D01*
X111287666Y-99851333D01*
X111254333Y-99818000D01*
X125710905Y-91175666D02*
X125329952Y-91409000D01*
X125710905Y-91575666D02*
X124910905Y-91575666D01*
X124910905Y-91309000D01*
X124949000Y-91242333D01*
X124987095Y-91209000D01*
X125063286Y-91175666D01*
X125177571Y-91175666D01*
X125253762Y-91209000D01*
X125291857Y-91242333D01*
X125329952Y-91309000D01*
X125329952Y-91575666D01*
X124910905Y-90542333D02*
X124910905Y-90875666D01*
X125291857Y-90909000D01*
X125253762Y-90875666D01*
X125215667Y-90809000D01*
X125215667Y-90642333D01*
X125253762Y-90575666D01*
X125291857Y-90542333D01*
X125368048Y-90509000D01*
X125558524Y-90509000D01*
X125634714Y-90542333D01*
X125672810Y-90575666D01*
X125710905Y-90642333D01*
X125710905Y-90809000D01*
X125672810Y-90875666D01*
X125634714Y-90909000D01*
X126248334Y-92436905D02*
X126015000Y-92055952D01*
X125848334Y-92436905D02*
X125848334Y-91636905D01*
X126115000Y-91636905D01*
X126181667Y-91675000D01*
X126215000Y-91713095D01*
X126248334Y-91789286D01*
X126248334Y-91903571D01*
X126215000Y-91979762D01*
X126181667Y-92017857D01*
X126115000Y-92055952D01*
X125848334Y-92055952D01*
X126848334Y-91636905D02*
X126715000Y-91636905D01*
X126648334Y-91675000D01*
X126615000Y-91713095D01*
X126548334Y-91827381D01*
X126515000Y-91979762D01*
X126515000Y-92284524D01*
X126548334Y-92360714D01*
X126581667Y-92398810D01*
X126648334Y-92436905D01*
X126781667Y-92436905D01*
X126848334Y-92398810D01*
X126881667Y-92360714D01*
X126915000Y-92284524D01*
X126915000Y-92094048D01*
X126881667Y-92017857D01*
X126848334Y-91979762D01*
X126781667Y-91941667D01*
X126648334Y-91941667D01*
X126581667Y-91979762D01*
X126548334Y-92017857D01*
X126515000Y-92094048D01*
X126248334Y-93579905D02*
X126015000Y-93198952D01*
X125848334Y-93579905D02*
X125848334Y-92779905D01*
X126115000Y-92779905D01*
X126181667Y-92818000D01*
X126215000Y-92856095D01*
X126248334Y-92932286D01*
X126248334Y-93046571D01*
X126215000Y-93122762D01*
X126181667Y-93160857D01*
X126115000Y-93198952D01*
X125848334Y-93198952D01*
X126481667Y-92779905D02*
X126948334Y-92779905D01*
X126648334Y-93579905D01*
M02*
