G04 #@! TF.FileFunction,Copper,L1,Top,Signal*
%FSLAX46Y46*%
G04 Gerber Fmt 4.6, Leading zero omitted, Abs format (unit mm)*
G04 Created by KiCad (PCBNEW 4.0.7-e2-6376~61~ubuntu18.04.1) date Fri Jan 25 15:58:37 2019*
%MOMM*%
%LPD*%
G01*
G04 APERTURE LIST*
%ADD10C,0.100000*%
%ADD11R,0.600000X1.500000*%
%ADD12R,1.700000X1.700000*%
%ADD13O,1.700000X1.700000*%
%ADD14R,2.000000X2.400000*%
%ADD15R,0.800000X0.750000*%
%ADD16R,0.750000X0.800000*%
%ADD17R,0.900000X0.500000*%
%ADD18C,1.600000*%
%ADD19R,1.600000X1.500000*%
%ADD20O,4.000000X2.000000*%
%ADD21R,0.950000X0.875000*%
%ADD22R,1.200000X1.200000*%
%ADD23R,1.000000X1.000000*%
%ADD24C,0.600000*%
%ADD25C,0.350000*%
%ADD26C,0.300000*%
%ADD27C,0.250000*%
G04 APERTURE END LIST*
D10*
D11*
X107061000Y-94902000D03*
X108331000Y-94902000D03*
X109601000Y-94902000D03*
X110871000Y-94902000D03*
X112141000Y-94902000D03*
X113411000Y-94902000D03*
X114681000Y-94902000D03*
X115951000Y-94902000D03*
X115951000Y-89502000D03*
X114681000Y-89502000D03*
X113411000Y-89502000D03*
X112141000Y-89502000D03*
X110871000Y-89502000D03*
X109601000Y-89502000D03*
X108331000Y-89502000D03*
X107061000Y-89502000D03*
D12*
X131826000Y-87630000D03*
D13*
X131826000Y-90170000D03*
X131826000Y-92710000D03*
X131826000Y-95250000D03*
X131826000Y-97790000D03*
D11*
X120269000Y-94648000D03*
X121539000Y-94648000D03*
X122809000Y-94648000D03*
X124079000Y-94648000D03*
X125349000Y-94648000D03*
X126619000Y-94648000D03*
X127889000Y-94648000D03*
X129159000Y-94648000D03*
X129159000Y-89248000D03*
X127889000Y-89248000D03*
X126619000Y-89248000D03*
X125349000Y-89248000D03*
X124079000Y-89248000D03*
X122809000Y-89248000D03*
X121539000Y-89248000D03*
X120269000Y-89248000D03*
D14*
X117784000Y-98044000D03*
X121484000Y-98044000D03*
D15*
X113931000Y-98298000D03*
X115431000Y-98298000D03*
D16*
X110871000Y-96709800D03*
X110871000Y-98209800D03*
D15*
X113931000Y-96774000D03*
X115431000Y-96774000D03*
D16*
X107061000Y-86346600D03*
X107061000Y-87846600D03*
D15*
X120154000Y-87503000D03*
X121654000Y-87503000D03*
D16*
X126619000Y-96532000D03*
X126619000Y-98032000D03*
X125349000Y-96532000D03*
X125349000Y-98032000D03*
D17*
X110744000Y-87872000D03*
X110744000Y-86372000D03*
D18*
X104900000Y-91800000D03*
X104900000Y-89300000D03*
X104900000Y-93800000D03*
D19*
X104900000Y-96300000D03*
D20*
X102800000Y-98500000D03*
X102800000Y-87100000D03*
D21*
X106807000Y-99212500D03*
X106807000Y-97637500D03*
D22*
X118110000Y-88816000D03*
X118110000Y-91016000D03*
D23*
X108331000Y-96774000D03*
X127889000Y-87249000D03*
X115951000Y-87503000D03*
D22*
X118110000Y-95080000D03*
X118110000Y-92880000D03*
D23*
X109601000Y-96774000D03*
D17*
X124079000Y-92444000D03*
X124079000Y-90944000D03*
X127762000Y-91198000D03*
X127762000Y-92698000D03*
X129159000Y-91198000D03*
X129159000Y-92698000D03*
D24*
X108585000Y-91313000D03*
X120269000Y-90551000D03*
X110871000Y-99187000D03*
X107188000Y-96266000D03*
X121539000Y-90551000D03*
X126619000Y-98933000D03*
X112903000Y-97536000D03*
X106172000Y-86360000D03*
X112141000Y-93218000D03*
X113411000Y-93218000D03*
X122809000Y-87757000D03*
X125349000Y-87757000D03*
X126619000Y-91186000D03*
X122809000Y-91440000D03*
X119380000Y-94615000D03*
X119126000Y-88773000D03*
X116967000Y-95123000D03*
X121285000Y-93218000D03*
X122809000Y-93218000D03*
D25*
X108585000Y-91313000D02*
X107061000Y-91313000D01*
D26*
X108585000Y-86106000D02*
X107950000Y-86741000D01*
X107950000Y-87630000D02*
X107950000Y-86741000D01*
X107696000Y-87846600D02*
X107733400Y-87846600D01*
X107061000Y-87846600D02*
X107696000Y-87846600D01*
X107950000Y-87630000D02*
X107733400Y-87846600D01*
X109601000Y-86106000D02*
X108585000Y-86106000D01*
X109867000Y-86372000D02*
X110744000Y-86372000D01*
X109867000Y-86372000D02*
X109601000Y-86106000D01*
D27*
X107061000Y-87846600D02*
X107061000Y-87839000D01*
D26*
X120269000Y-90551000D02*
X120269000Y-89248000D01*
D25*
X107061000Y-91313000D02*
X106299000Y-92075000D01*
X106807000Y-97637500D02*
X106807000Y-97028000D01*
X106807000Y-97028000D02*
X106299000Y-96520000D01*
X106299000Y-92075000D02*
X106299000Y-96520000D01*
X107061000Y-89502000D02*
X107061000Y-91313000D01*
D26*
X110744000Y-86372000D02*
X110756000Y-86360000D01*
X120154000Y-87503000D02*
X120269000Y-87618000D01*
X120269000Y-87618000D02*
X120269000Y-89248000D01*
X110744000Y-86372000D02*
X110732000Y-86360000D01*
X107061000Y-87846600D02*
X107061000Y-89502000D01*
X110871000Y-98209800D02*
X110871000Y-99187000D01*
X107061000Y-94902000D02*
X107061000Y-95758000D01*
X107188000Y-95885000D02*
X107188000Y-96266000D01*
X107061000Y-95758000D02*
X107188000Y-95885000D01*
X121539000Y-89248000D02*
X121539000Y-90551000D01*
X126619000Y-98032000D02*
X126619000Y-98933000D01*
X121654000Y-87503000D02*
X121539000Y-87618000D01*
X121539000Y-87618000D02*
X121539000Y-89248000D01*
X113157000Y-98298000D02*
X112903000Y-98044000D01*
X113931000Y-96774000D02*
X113157000Y-96774000D01*
X112903000Y-97028000D02*
X112903000Y-97536000D01*
X112903000Y-97028000D02*
X113157000Y-96774000D01*
X113157000Y-98298000D02*
X113931000Y-98298000D01*
X112903000Y-98044000D02*
X112903000Y-97536000D01*
X107061000Y-86346600D02*
X107047600Y-86360000D01*
X107047600Y-86360000D02*
X106172000Y-86360000D01*
X110871000Y-94902000D02*
X110871000Y-96709800D01*
D25*
X105410000Y-98933000D02*
X105410000Y-97917000D01*
X105410000Y-97917000D02*
X104902000Y-97409000D01*
X105664000Y-99187000D02*
X105410000Y-98933000D01*
X105664000Y-99187000D02*
X106781500Y-99187000D01*
X106807000Y-99212500D02*
X106781500Y-99187000D01*
D26*
X104900000Y-96300000D02*
X104902000Y-96302000D01*
D25*
X104902000Y-96302000D02*
X104902000Y-97409000D01*
D26*
X112141000Y-94902000D02*
X112141000Y-93218000D01*
X113411000Y-93218000D02*
X113411000Y-94902000D01*
D25*
X122809000Y-87757000D02*
X122809000Y-89248000D01*
X124333000Y-87757000D02*
X124079000Y-88011000D01*
X124079000Y-88011000D02*
X124079000Y-89248000D01*
X125349000Y-87757000D02*
X124333000Y-87757000D01*
D26*
X124079000Y-90944000D02*
X124079000Y-89248000D01*
D25*
X131826000Y-92710000D02*
X130810000Y-92710000D01*
X130810000Y-92710000D02*
X130048000Y-91948000D01*
X127762000Y-92698000D02*
X127762000Y-91948000D01*
X127762000Y-91948000D02*
X130048000Y-91948000D01*
X127889000Y-94648000D02*
X127889000Y-93472000D01*
X127762000Y-93345000D02*
X127762000Y-92698000D01*
X127889000Y-93472000D02*
X127762000Y-93345000D01*
D26*
X129159000Y-92698000D02*
X129159000Y-94648000D01*
D25*
X129159000Y-94648000D02*
X129192000Y-94615000D01*
X129192000Y-94615000D02*
X130175000Y-94615000D01*
X130810000Y-95250000D02*
X131953000Y-95250000D01*
X130810000Y-95250000D02*
X130175000Y-94615000D01*
D26*
X126619000Y-89248000D02*
X126619000Y-91186000D01*
X119634000Y-91059000D02*
X118153000Y-91059000D01*
X119634000Y-91059000D02*
X120015000Y-91440000D01*
X120015000Y-91440000D02*
X122809000Y-91440000D01*
X108331000Y-94902000D02*
X108331000Y-96774000D01*
X116459000Y-91694000D02*
X109347000Y-91694000D01*
X118067000Y-91059000D02*
X117094000Y-91059000D01*
X109347000Y-91694000D02*
X108331000Y-92710000D01*
X108331000Y-92710000D02*
X108331000Y-94902000D01*
X117094000Y-91059000D02*
X116459000Y-91694000D01*
X118067000Y-91059000D02*
X118110000Y-91016000D01*
X118110000Y-91016000D02*
X118153000Y-91059000D01*
X125349000Y-89248000D02*
X125349000Y-92075000D01*
X124980000Y-92444000D02*
X124079000Y-92444000D01*
X125349000Y-92075000D02*
X124980000Y-92444000D01*
X124079000Y-92444000D02*
X120027000Y-92444000D01*
X119634000Y-92837000D02*
X120015000Y-92456000D01*
X119634000Y-92837000D02*
X118153000Y-92837000D01*
X120027000Y-92444000D02*
X120015000Y-92456000D01*
X109601000Y-94902000D02*
X109601000Y-96774000D01*
X118110000Y-92880000D02*
X118067000Y-92837000D01*
X118067000Y-92837000D02*
X116840000Y-92837000D01*
X116840000Y-92837000D02*
X116459000Y-92456000D01*
X109982000Y-92456000D02*
X116459000Y-92456000D01*
X109601000Y-94902000D02*
X109601000Y-92837000D01*
X109982000Y-92456000D02*
X109601000Y-92837000D01*
D25*
X127889000Y-89248000D02*
X127889000Y-90424000D01*
X127762000Y-90551000D02*
X127762000Y-91198000D01*
X127889000Y-90424000D02*
X127762000Y-90551000D01*
D26*
X118110000Y-86614000D02*
X127254000Y-86614000D01*
X116967000Y-87757000D02*
X118110000Y-86614000D01*
X116967000Y-90297000D02*
X116332000Y-90932000D01*
X116332000Y-90932000D02*
X109982000Y-90932000D01*
X116967000Y-90297000D02*
X116967000Y-87757000D01*
X109601000Y-90551000D02*
X109982000Y-90932000D01*
X109601000Y-89502000D02*
X109601000Y-90551000D01*
X127254000Y-86614000D02*
X127889000Y-87249000D01*
X127889000Y-87249000D02*
X127889000Y-89248000D01*
X129159000Y-89248000D02*
X129159000Y-91198000D01*
X117348000Y-86106000D02*
X128651000Y-86106000D01*
X129159000Y-86614000D02*
X128651000Y-86106000D01*
X129159000Y-89248000D02*
X129159000Y-86614000D01*
X117348000Y-86106000D02*
X115951000Y-87503000D01*
X115951000Y-89502000D02*
X115951000Y-87503000D01*
X115431000Y-98298000D02*
X116078000Y-98298000D01*
X116332000Y-98044000D02*
X117784000Y-98044000D01*
X116078000Y-98298000D02*
X116332000Y-98044000D01*
D27*
X114681000Y-94902000D02*
X114681000Y-97536000D01*
X114681000Y-97548000D02*
X115431000Y-98298000D01*
X115951000Y-96254000D02*
X115963000Y-96266000D01*
D26*
X119706000Y-96266000D02*
X121484000Y-98044000D01*
X115963000Y-96266000D02*
X119706000Y-96266000D01*
X115431000Y-96774000D02*
X115951000Y-96254000D01*
X115951000Y-96254000D02*
X115951000Y-94902000D01*
X125349000Y-94648000D02*
X125349000Y-96532000D01*
X119380000Y-94615000D02*
X120236000Y-94615000D01*
X120269000Y-94648000D02*
X120236000Y-94615000D01*
X126619000Y-94648000D02*
X126619000Y-96532000D01*
X124079000Y-94648000D02*
X124079000Y-97512000D01*
X124599000Y-98032000D02*
X125349000Y-98032000D01*
X124079000Y-97512000D02*
X124599000Y-98032000D01*
X118110000Y-88816000D02*
X118153000Y-88773000D01*
X118153000Y-88773000D02*
X119126000Y-88773000D01*
X118067000Y-95123000D02*
X116967000Y-95123000D01*
X110109000Y-87884000D02*
X109601000Y-88392000D01*
X109601000Y-88392000D02*
X108585000Y-88392000D01*
X108331000Y-88646000D02*
X108585000Y-88392000D01*
X108331000Y-89502000D02*
X108331000Y-88646000D01*
X110109000Y-87884000D02*
X110732000Y-87884000D01*
X110744000Y-87872000D02*
X110732000Y-87884000D01*
X121539000Y-94648000D02*
X121539000Y-93472000D01*
X121539000Y-93472000D02*
X121285000Y-93218000D01*
X122809000Y-94648000D02*
X122809000Y-93218000D01*
M02*
