M48
INCH,TZ
T1C0.016
T2C0.037
T3C0.039
%
G90
G05
T1
X41800Y-34000
X42200Y-37900
X42750Y-35950
X43650Y-39050
X44150Y-36700
X44450Y-38400
X44650Y-36700
X46050Y-37450
X46900Y-34950
X47000Y-37250
X47350Y-35650
X47850Y-35650
X47850Y-36700
X48350Y-34450
X48350Y-36750
X48600Y-36000
X49100Y-34450
X49850Y-36000
X49850Y-38950
T2
X41299Y-35157
X41299Y-36142
X41299Y-36929
X41299Y-37913
T3
X51900Y-34500
X51900Y-35500
X51900Y-36500
X51900Y-37500
X51900Y-38500
T3
X40768Y-34291G85X40177Y-34291
G05
X40768Y-38780G85X40177Y-38780
G05
T0
M30
