G04 #@! TF.FileFunction,Legend,Top*
%FSLAX46Y46*%
G04 Gerber Fmt 4.6, Leading zero omitted, Abs format (unit mm)*
G04 Created by KiCad (PCBNEW 4.0.7-e2-6376~61~ubuntu18.04.1) date Fri Aug 31 14:25:44 2018*
%MOMM*%
%LPD*%
G01*
G04 APERTURE LIST*
%ADD10C,0.100000*%
%ADD11C,0.150000*%
%ADD12C,0.120000*%
G04 APERTURE END LIST*
D10*
D11*
X133458000Y-98399523D02*
X133419905Y-98475714D01*
X133419905Y-98589999D01*
X133458000Y-98704285D01*
X133534190Y-98780476D01*
X133610381Y-98818571D01*
X133762762Y-98856666D01*
X133877048Y-98856666D01*
X134029429Y-98818571D01*
X134105619Y-98780476D01*
X134181810Y-98704285D01*
X134219905Y-98589999D01*
X134219905Y-98513809D01*
X134181810Y-98399523D01*
X134143714Y-98361428D01*
X133877048Y-98361428D01*
X133877048Y-98513809D01*
X134219905Y-98018571D02*
X133419905Y-98018571D01*
X134219905Y-97561428D01*
X133419905Y-97561428D01*
X134219905Y-97180476D02*
X133419905Y-97180476D01*
X133419905Y-96990000D01*
X133458000Y-96875714D01*
X133534190Y-96799523D01*
X133610381Y-96761428D01*
X133762762Y-96723333D01*
X133877048Y-96723333D01*
X134029429Y-96761428D01*
X134105619Y-96799523D01*
X134181810Y-96875714D01*
X134219905Y-96990000D01*
X134219905Y-97180476D01*
X134143714Y-95688095D02*
X134181810Y-95726190D01*
X134219905Y-95840476D01*
X134219905Y-95916666D01*
X134181810Y-96030952D01*
X134105619Y-96107143D01*
X134029429Y-96145238D01*
X133877048Y-96183333D01*
X133762762Y-96183333D01*
X133610381Y-96145238D01*
X133534190Y-96107143D01*
X133458000Y-96030952D01*
X133419905Y-95916666D01*
X133419905Y-95840476D01*
X133458000Y-95726190D01*
X133496095Y-95688095D01*
X133419905Y-95459524D02*
X133419905Y-95002381D01*
X134219905Y-95230952D02*
X133419905Y-95230952D01*
X134181810Y-94773809D02*
X134219905Y-94659523D01*
X134219905Y-94469047D01*
X134181810Y-94392857D01*
X134143714Y-94354761D01*
X134067524Y-94316666D01*
X133991333Y-94316666D01*
X133915143Y-94354761D01*
X133877048Y-94392857D01*
X133838952Y-94469047D01*
X133800857Y-94621428D01*
X133762762Y-94697619D01*
X133724667Y-94735714D01*
X133648476Y-94773809D01*
X133572286Y-94773809D01*
X133496095Y-94735714D01*
X133458000Y-94697619D01*
X133419905Y-94621428D01*
X133419905Y-94430952D01*
X133458000Y-94316666D01*
X134219905Y-93148095D02*
X133838952Y-93414762D01*
X134219905Y-93605238D02*
X133419905Y-93605238D01*
X133419905Y-93300476D01*
X133458000Y-93224285D01*
X133496095Y-93186190D01*
X133572286Y-93148095D01*
X133686571Y-93148095D01*
X133762762Y-93186190D01*
X133800857Y-93224285D01*
X133838952Y-93300476D01*
X133838952Y-93605238D01*
X133419905Y-92919524D02*
X133419905Y-92462381D01*
X134219905Y-92690952D02*
X133419905Y-92690952D01*
X134181810Y-92233809D02*
X134219905Y-92119523D01*
X134219905Y-91929047D01*
X134181810Y-91852857D01*
X134143714Y-91814761D01*
X134067524Y-91776666D01*
X133991333Y-91776666D01*
X133915143Y-91814761D01*
X133877048Y-91852857D01*
X133838952Y-91929047D01*
X133800857Y-92081428D01*
X133762762Y-92157619D01*
X133724667Y-92195714D01*
X133648476Y-92233809D01*
X133572286Y-92233809D01*
X133496095Y-92195714D01*
X133458000Y-92157619D01*
X133419905Y-92081428D01*
X133419905Y-91890952D01*
X133458000Y-91776666D01*
X134219905Y-90176333D02*
X133838952Y-90443000D01*
X134219905Y-90633476D02*
X133419905Y-90633476D01*
X133419905Y-90328714D01*
X133458000Y-90252523D01*
X133496095Y-90214428D01*
X133572286Y-90176333D01*
X133686571Y-90176333D01*
X133762762Y-90214428D01*
X133800857Y-90252523D01*
X133838952Y-90328714D01*
X133838952Y-90633476D01*
X133419905Y-89909666D02*
X134219905Y-89376333D01*
X133419905Y-89376333D02*
X134219905Y-89909666D01*
X133419905Y-88366524D02*
X133419905Y-87909381D01*
X134219905Y-88137952D02*
X133419905Y-88137952D01*
X133419905Y-87718904D02*
X134219905Y-87185571D01*
X133419905Y-87185571D02*
X134219905Y-87718904D01*
X110109000Y-97917000D02*
X109728000Y-97536000D01*
X109728000Y-97536000D02*
X109855000Y-97790000D01*
X109728000Y-97536000D02*
X109982000Y-97663000D01*
X110109000Y-98933000D02*
X110109000Y-97917000D01*
X107950000Y-98933000D02*
X107950000Y-97536000D01*
X107950000Y-97536000D02*
X108077000Y-98044000D01*
X107950000Y-97536000D02*
X107823000Y-98044000D01*
X106431000Y-94277000D02*
X106456000Y-94277000D01*
X106431000Y-90127000D02*
X106536000Y-90127000D01*
X116581000Y-90127000D02*
X116476000Y-90127000D01*
X116581000Y-94277000D02*
X116476000Y-94277000D01*
X106431000Y-94277000D02*
X106431000Y-90127000D01*
X116581000Y-94277000D02*
X116581000Y-90127000D01*
X106456000Y-94277000D02*
X106456000Y-95652000D01*
D12*
X130496000Y-99120000D02*
X133156000Y-99120000D01*
X130496000Y-88900000D02*
X130496000Y-99120000D01*
X133156000Y-88900000D02*
X133156000Y-99120000D01*
X130496000Y-88900000D02*
X133156000Y-88900000D01*
X130496000Y-87630000D02*
X130496000Y-86300000D01*
X130496000Y-86300000D02*
X131826000Y-86300000D01*
D11*
X119639000Y-94023000D02*
X119664000Y-94023000D01*
X119639000Y-89873000D02*
X119744000Y-89873000D01*
X129789000Y-89873000D02*
X129684000Y-89873000D01*
X129789000Y-94023000D02*
X129684000Y-94023000D01*
X119639000Y-94023000D02*
X119639000Y-89873000D01*
X129789000Y-94023000D02*
X129789000Y-89873000D01*
X119664000Y-94023000D02*
X119664000Y-95398000D01*
D12*
X122334000Y-96244000D02*
X116584000Y-96244000D01*
X116584000Y-96244000D02*
X116584000Y-99844000D01*
X116584000Y-99844000D02*
X122334000Y-99844000D01*
X114331000Y-97698000D02*
X115031000Y-97698000D01*
X115031000Y-98898000D02*
X114331000Y-98898000D01*
X111471000Y-97109800D02*
X111471000Y-97809800D01*
X110271000Y-97809800D02*
X110271000Y-97109800D01*
X114331000Y-96174000D02*
X115031000Y-96174000D01*
X115031000Y-97374000D02*
X114331000Y-97374000D01*
X107661000Y-86746600D02*
X107661000Y-87446600D01*
X106461000Y-87446600D02*
X106461000Y-86746600D01*
X120554000Y-86903000D02*
X121254000Y-86903000D01*
X121254000Y-88103000D02*
X120554000Y-88103000D01*
X127219000Y-96932000D02*
X127219000Y-97632000D01*
X126019000Y-97632000D02*
X126019000Y-96932000D01*
X125949000Y-96932000D02*
X125949000Y-97632000D01*
X124749000Y-97632000D02*
X124749000Y-96932000D01*
X111424000Y-86622000D02*
X111424000Y-87622000D01*
X110064000Y-87622000D02*
X110064000Y-86622000D01*
D11*
X100050000Y-99800000D02*
X105900000Y-99800000D01*
X105900000Y-99800000D02*
X105900000Y-85800000D01*
X105900000Y-85800000D02*
X100050000Y-85800000D01*
X100050000Y-85800000D02*
X100050000Y-99800000D01*
D12*
X106297000Y-98587779D02*
X106297000Y-98262221D01*
X107317000Y-98587779D02*
X107317000Y-98262221D01*
X117410000Y-91716000D02*
X118810000Y-91716000D01*
X118810000Y-91716000D02*
X118810000Y-88916000D01*
X117410000Y-91716000D02*
X117410000Y-88916000D01*
X118810000Y-92180000D02*
X117410000Y-92180000D01*
X117410000Y-92180000D02*
X117410000Y-94980000D01*
X118810000Y-92180000D02*
X118810000Y-94980000D01*
D10*
X112369667Y-87627667D02*
X112369667Y-88194333D01*
X112403000Y-88261000D01*
X112436333Y-88294333D01*
X112503000Y-88327667D01*
X112636333Y-88327667D01*
X112703000Y-88294333D01*
X112736333Y-88261000D01*
X112769667Y-88194333D01*
X112769667Y-87627667D01*
X113469666Y-88327667D02*
X113069666Y-88327667D01*
X113269666Y-88327667D02*
X113269666Y-87627667D01*
X113203000Y-87727667D01*
X113136333Y-87794333D01*
X113069666Y-87827667D01*
X129537667Y-98023333D02*
X130037667Y-98023333D01*
X130137667Y-98056667D01*
X130204333Y-98123333D01*
X130237667Y-98223333D01*
X130237667Y-98290000D01*
X129604333Y-97723334D02*
X129571000Y-97690000D01*
X129537667Y-97623334D01*
X129537667Y-97456667D01*
X129571000Y-97390000D01*
X129604333Y-97356667D01*
X129671000Y-97323334D01*
X129737667Y-97323334D01*
X129837667Y-97356667D01*
X130237667Y-97756667D01*
X130237667Y-97323334D01*
X125704667Y-87246667D02*
X125704667Y-87813333D01*
X125738000Y-87880000D01*
X125771333Y-87913333D01*
X125838000Y-87946667D01*
X125971333Y-87946667D01*
X126038000Y-87913333D01*
X126071333Y-87880000D01*
X126104667Y-87813333D01*
X126104667Y-87246667D01*
X126404666Y-87313333D02*
X126438000Y-87280000D01*
X126504666Y-87246667D01*
X126671333Y-87246667D01*
X126738000Y-87280000D01*
X126771333Y-87313333D01*
X126804666Y-87380000D01*
X126804666Y-87446667D01*
X126771333Y-87546667D01*
X126371333Y-87946667D01*
X126804666Y-87946667D01*
X122983667Y-98154333D02*
X122983667Y-98487667D01*
X122750334Y-97787667D02*
X122983667Y-98154333D01*
X123217000Y-97787667D01*
X123817000Y-98487667D02*
X123417000Y-98487667D01*
X123617000Y-98487667D02*
X123617000Y-97787667D01*
X123550334Y-97887667D01*
X123483667Y-97954333D01*
X123417000Y-97987667D01*
X112532334Y-98802000D02*
X112499000Y-98835333D01*
X112399000Y-98868667D01*
X112332334Y-98868667D01*
X112232334Y-98835333D01*
X112165667Y-98768667D01*
X112132334Y-98702000D01*
X112099000Y-98568667D01*
X112099000Y-98468667D01*
X112132334Y-98335333D01*
X112165667Y-98268667D01*
X112232334Y-98202000D01*
X112332334Y-98168667D01*
X112399000Y-98168667D01*
X112499000Y-98202000D01*
X112532334Y-98235333D01*
X112799000Y-98235333D02*
X112832334Y-98202000D01*
X112899000Y-98168667D01*
X113065667Y-98168667D01*
X113132334Y-98202000D01*
X113165667Y-98235333D01*
X113199000Y-98302000D01*
X113199000Y-98368667D01*
X113165667Y-98468667D01*
X112765667Y-98868667D01*
X113199000Y-98868667D01*
X112264000Y-97652666D02*
X112297333Y-97686000D01*
X112330667Y-97786000D01*
X112330667Y-97852666D01*
X112297333Y-97952666D01*
X112230667Y-98019333D01*
X112164000Y-98052666D01*
X112030667Y-98086000D01*
X111930667Y-98086000D01*
X111797333Y-98052666D01*
X111730667Y-98019333D01*
X111664000Y-97952666D01*
X111630667Y-97852666D01*
X111630667Y-97786000D01*
X111664000Y-97686000D01*
X111697333Y-97652666D01*
X111630667Y-97419333D02*
X111630667Y-96986000D01*
X111897333Y-97219333D01*
X111897333Y-97119333D01*
X111930667Y-97052666D01*
X111964000Y-97019333D01*
X112030667Y-96986000D01*
X112197333Y-96986000D01*
X112264000Y-97019333D01*
X112297333Y-97052666D01*
X112330667Y-97119333D01*
X112330667Y-97319333D01*
X112297333Y-97386000D01*
X112264000Y-97419333D01*
X112532334Y-96770000D02*
X112499000Y-96803333D01*
X112399000Y-96836667D01*
X112332334Y-96836667D01*
X112232334Y-96803333D01*
X112165667Y-96736667D01*
X112132334Y-96670000D01*
X112099000Y-96536667D01*
X112099000Y-96436667D01*
X112132334Y-96303333D01*
X112165667Y-96236667D01*
X112232334Y-96170000D01*
X112332334Y-96136667D01*
X112399000Y-96136667D01*
X112499000Y-96170000D01*
X112532334Y-96203333D01*
X113132334Y-96370000D02*
X113132334Y-96836667D01*
X112965667Y-96103333D02*
X112799000Y-96603333D01*
X113232334Y-96603333D01*
X108214334Y-86356000D02*
X108181000Y-86389333D01*
X108081000Y-86422667D01*
X108014334Y-86422667D01*
X107914334Y-86389333D01*
X107847667Y-86322667D01*
X107814334Y-86256000D01*
X107781000Y-86122667D01*
X107781000Y-86022667D01*
X107814334Y-85889333D01*
X107847667Y-85822667D01*
X107914334Y-85756000D01*
X108014334Y-85722667D01*
X108081000Y-85722667D01*
X108181000Y-85756000D01*
X108214334Y-85789333D01*
X108847667Y-85722667D02*
X108514334Y-85722667D01*
X108481000Y-86056000D01*
X108514334Y-86022667D01*
X108581000Y-85989333D01*
X108747667Y-85989333D01*
X108814334Y-86022667D01*
X108847667Y-86056000D01*
X108881000Y-86122667D01*
X108881000Y-86289333D01*
X108847667Y-86356000D01*
X108814334Y-86389333D01*
X108747667Y-86422667D01*
X108581000Y-86422667D01*
X108514334Y-86389333D01*
X108481000Y-86356000D01*
X120787334Y-86610000D02*
X120754000Y-86643333D01*
X120654000Y-86676667D01*
X120587334Y-86676667D01*
X120487334Y-86643333D01*
X120420667Y-86576667D01*
X120387334Y-86510000D01*
X120354000Y-86376667D01*
X120354000Y-86276667D01*
X120387334Y-86143333D01*
X120420667Y-86076667D01*
X120487334Y-86010000D01*
X120587334Y-85976667D01*
X120654000Y-85976667D01*
X120754000Y-86010000D01*
X120787334Y-86043333D01*
X121020667Y-85976667D02*
X121487334Y-85976667D01*
X121187334Y-86676667D01*
X128139000Y-97398666D02*
X128172333Y-97432000D01*
X128205667Y-97532000D01*
X128205667Y-97598666D01*
X128172333Y-97698666D01*
X128105667Y-97765333D01*
X128039000Y-97798666D01*
X127905667Y-97832000D01*
X127805667Y-97832000D01*
X127672333Y-97798666D01*
X127605667Y-97765333D01*
X127539000Y-97698666D01*
X127505667Y-97598666D01*
X127505667Y-97532000D01*
X127539000Y-97432000D01*
X127572333Y-97398666D01*
X127805667Y-96998666D02*
X127772333Y-97065333D01*
X127739000Y-97098666D01*
X127672333Y-97132000D01*
X127639000Y-97132000D01*
X127572333Y-97098666D01*
X127539000Y-97065333D01*
X127505667Y-96998666D01*
X127505667Y-96865333D01*
X127539000Y-96798666D01*
X127572333Y-96765333D01*
X127639000Y-96732000D01*
X127672333Y-96732000D01*
X127739000Y-96765333D01*
X127772333Y-96798666D01*
X127805667Y-96865333D01*
X127805667Y-96998666D01*
X127839000Y-97065333D01*
X127872333Y-97098666D01*
X127939000Y-97132000D01*
X128072333Y-97132000D01*
X128139000Y-97098666D01*
X128172333Y-97065333D01*
X128205667Y-96998666D01*
X128205667Y-96865333D01*
X128172333Y-96798666D01*
X128139000Y-96765333D01*
X128072333Y-96732000D01*
X127939000Y-96732000D01*
X127872333Y-96765333D01*
X127839000Y-96798666D01*
X127805667Y-96865333D01*
X124456000Y-97398666D02*
X124489333Y-97432000D01*
X124522667Y-97532000D01*
X124522667Y-97598666D01*
X124489333Y-97698666D01*
X124422667Y-97765333D01*
X124356000Y-97798666D01*
X124222667Y-97832000D01*
X124122667Y-97832000D01*
X123989333Y-97798666D01*
X123922667Y-97765333D01*
X123856000Y-97698666D01*
X123822667Y-97598666D01*
X123822667Y-97532000D01*
X123856000Y-97432000D01*
X123889333Y-97398666D01*
X124522667Y-97065333D02*
X124522667Y-96932000D01*
X124489333Y-96865333D01*
X124456000Y-96832000D01*
X124356000Y-96765333D01*
X124222667Y-96732000D01*
X123956000Y-96732000D01*
X123889333Y-96765333D01*
X123856000Y-96798666D01*
X123822667Y-96865333D01*
X123822667Y-96998666D01*
X123856000Y-97065333D01*
X123889333Y-97098666D01*
X123956000Y-97132000D01*
X124122667Y-97132000D01*
X124189333Y-97098666D01*
X124222667Y-97065333D01*
X124256000Y-96998666D01*
X124256000Y-96865333D01*
X124222667Y-96798666D01*
X124189333Y-96765333D01*
X124122667Y-96732000D01*
X112330667Y-87111666D02*
X111997333Y-87345000D01*
X112330667Y-87511666D02*
X111630667Y-87511666D01*
X111630667Y-87245000D01*
X111664000Y-87178333D01*
X111697333Y-87145000D01*
X111764000Y-87111666D01*
X111864000Y-87111666D01*
X111930667Y-87145000D01*
X111964000Y-87178333D01*
X111997333Y-87245000D01*
X111997333Y-87511666D01*
X112330667Y-86445000D02*
X112330667Y-86845000D01*
X112330667Y-86645000D02*
X111630667Y-86645000D01*
X111730667Y-86711666D01*
X111797333Y-86778333D01*
X111830667Y-86845000D01*
X102359667Y-93070333D02*
X102859667Y-93070333D01*
X102959667Y-93103667D01*
X103026333Y-93170333D01*
X103059667Y-93270333D01*
X103059667Y-93337000D01*
X103059667Y-92370334D02*
X103059667Y-92770334D01*
X103059667Y-92570334D02*
X102359667Y-92570334D01*
X102459667Y-92637000D01*
X102526333Y-92703667D01*
X102559667Y-92770334D01*
X106573667Y-96470000D02*
X106340334Y-96470000D01*
X106340334Y-96836667D02*
X106340334Y-96136667D01*
X106673667Y-96136667D01*
X107307000Y-96836667D02*
X106907000Y-96836667D01*
X107107000Y-96836667D02*
X107107000Y-96136667D01*
X107040334Y-96236667D01*
X106973667Y-96303333D01*
X106907000Y-96336667D01*
X117593334Y-87819667D02*
X117593334Y-87119667D01*
X117760000Y-87119667D01*
X117860000Y-87153000D01*
X117926667Y-87219667D01*
X117960000Y-87286333D01*
X117993334Y-87419667D01*
X117993334Y-87519667D01*
X117960000Y-87653000D01*
X117926667Y-87719667D01*
X117860000Y-87786333D01*
X117760000Y-87819667D01*
X117593334Y-87819667D01*
X118660000Y-87819667D02*
X118260000Y-87819667D01*
X118460000Y-87819667D02*
X118460000Y-87119667D01*
X118393334Y-87219667D01*
X118326667Y-87286333D01*
X118260000Y-87319667D01*
X119117334Y-96074667D02*
X119117334Y-95374667D01*
X119284000Y-95374667D01*
X119384000Y-95408000D01*
X119450667Y-95474667D01*
X119484000Y-95541333D01*
X119517334Y-95674667D01*
X119517334Y-95774667D01*
X119484000Y-95908000D01*
X119450667Y-95974667D01*
X119384000Y-96041333D01*
X119284000Y-96074667D01*
X119117334Y-96074667D01*
X119784000Y-95441333D02*
X119817334Y-95408000D01*
X119884000Y-95374667D01*
X120050667Y-95374667D01*
X120117334Y-95408000D01*
X120150667Y-95441333D01*
X120184000Y-95508000D01*
X120184000Y-95574667D01*
X120150667Y-95674667D01*
X119750667Y-96074667D01*
X120184000Y-96074667D01*
X109479667Y-99184667D02*
X109879667Y-99184667D01*
X109679667Y-99884667D02*
X109679667Y-99184667D01*
X110113000Y-99884667D02*
X110113000Y-99184667D01*
X110379666Y-99184667D01*
X110446333Y-99218000D01*
X110479666Y-99251333D01*
X110513000Y-99318000D01*
X110513000Y-99418000D01*
X110479666Y-99484667D01*
X110446333Y-99518000D01*
X110379666Y-99551333D01*
X110113000Y-99551333D01*
X110746333Y-99184667D02*
X111179666Y-99184667D01*
X110946333Y-99451333D01*
X111046333Y-99451333D01*
X111113000Y-99484667D01*
X111146333Y-99518000D01*
X111179666Y-99584667D01*
X111179666Y-99751333D01*
X111146333Y-99818000D01*
X111113000Y-99851333D01*
X111046333Y-99884667D01*
X110846333Y-99884667D01*
X110779666Y-99851333D01*
X110746333Y-99818000D01*
X107447667Y-99184667D02*
X107847667Y-99184667D01*
X107647667Y-99884667D02*
X107647667Y-99184667D01*
X108081000Y-99884667D02*
X108081000Y-99184667D01*
X108347666Y-99184667D01*
X108414333Y-99218000D01*
X108447666Y-99251333D01*
X108481000Y-99318000D01*
X108481000Y-99418000D01*
X108447666Y-99484667D01*
X108414333Y-99518000D01*
X108347666Y-99551333D01*
X108081000Y-99551333D01*
X109081000Y-99418000D02*
X109081000Y-99884667D01*
X108914333Y-99151333D02*
X108747666Y-99651333D01*
X109181000Y-99651333D01*
X127005667Y-85849667D02*
X127405667Y-85849667D01*
X127205667Y-86549667D02*
X127205667Y-85849667D01*
X127639000Y-86549667D02*
X127639000Y-85849667D01*
X127905666Y-85849667D01*
X127972333Y-85883000D01*
X128005666Y-85916333D01*
X128039000Y-85983000D01*
X128039000Y-86083000D01*
X128005666Y-86149667D01*
X127972333Y-86183000D01*
X127905666Y-86216333D01*
X127639000Y-86216333D01*
X128672333Y-85849667D02*
X128339000Y-85849667D01*
X128305666Y-86183000D01*
X128339000Y-86149667D01*
X128405666Y-86116333D01*
X128572333Y-86116333D01*
X128639000Y-86149667D01*
X128672333Y-86183000D01*
X128705666Y-86249667D01*
X128705666Y-86416333D01*
X128672333Y-86483000D01*
X128639000Y-86516333D01*
X128572333Y-86549667D01*
X128405666Y-86549667D01*
X128339000Y-86516333D01*
X128305666Y-86483000D01*
X113416667Y-86738667D02*
X113816667Y-86738667D01*
X113616667Y-87438667D02*
X113616667Y-86738667D01*
X114050000Y-87438667D02*
X114050000Y-86738667D01*
X114316666Y-86738667D01*
X114383333Y-86772000D01*
X114416666Y-86805333D01*
X114450000Y-86872000D01*
X114450000Y-86972000D01*
X114416666Y-87038667D01*
X114383333Y-87072000D01*
X114316666Y-87105333D01*
X114050000Y-87105333D01*
X115050000Y-86738667D02*
X114916666Y-86738667D01*
X114850000Y-86772000D01*
X114816666Y-86805333D01*
X114750000Y-86905333D01*
X114716666Y-87038667D01*
X114716666Y-87305333D01*
X114750000Y-87372000D01*
X114783333Y-87405333D01*
X114850000Y-87438667D01*
X114983333Y-87438667D01*
X115050000Y-87405333D01*
X115083333Y-87372000D01*
X115116666Y-87305333D01*
X115116666Y-87138667D01*
X115083333Y-87072000D01*
X115050000Y-87038667D01*
X114983333Y-87005333D01*
X114850000Y-87005333D01*
X114783333Y-87038667D01*
X114750000Y-87072000D01*
X114716666Y-87138667D01*
M02*
